# xmcd CD database file
#
# Track frame offsets:
#	150
#	16933
#	36199
#	60086
#	80960
#	102092
#	108073
#	121512
#	143579
#	158287
#	176299
#	182092
#	202643
#
# Disc length: 2932 seconds
#
# Revision: 3
# Processed by: cddbd v1.5.2PL0 Copyright (c) Steve Scherf et al.
# Submitted via: CDex 1.70beta2
#
DISCID=860b720d
DTITLE=Billy's Band - Оторвёмся по-питерски
DYEAR=2005
DGENRE=Blues
TTITLE0=Оторвёмся по-питерски
TTITLE1=Я не вернусь
TTITLE2=В голове блюз
TTITLE3=Я послала любовь
TTITLE4=Так я падал
TTITLE5=Упражнения в... (инструментал)
TTITLE6=32 рубля
TTITLE7=Где спит твоё сердце
TTITLE8=Не верь мужикам
TTITLE9=В этом городе
TTITLE10=Зимнее утро (инструментал)
TTITLE11=Кладбище девичьих сердец
TTITLE12=Оторвёмся по-питерски (джаз-версия)
EXTD=YEAR: 2005
EXTT0=
EXTT1=
EXTT2=
EXTT3=
EXTT4=
EXTT5=
EXTT6=
EXTT7=
EXTT8=
EXTT9=
EXTT10=
EXTT11=
EXTT12=
PLAYORDER=
